<svg width="23" height="20" viewBox="0 0 23 20" fill="none" xmlns="http://www.w3.org/2000/svg">
<path d="M13.9381 4.42719C14.9149 4.59046 15.8125 4.99975 16.5162 5.60266C17.2199 6.20557 17.6976 6.97467 17.8881 7.81154M13.9381 1C15.9674 1.19315 17.8597 1.97176 19.3044 3.20797C20.749 4.44419 21.6601 6.06454 21.8881 7.80297M20.8881 14.6402V17.2106C20.8893 17.4492 20.8322 17.6854 20.7206 17.904C20.6091 18.1227 20.4454 18.3189 20.2402 18.4803C20.035 18.6416 19.7927 18.7644 19.5289 18.8408C19.265 18.9173 18.9855 18.9457 18.7081 18.9242C15.631 18.6377 12.6751 17.7368 10.0781 16.2938C7.66195 14.9784 5.61345 13.2232 4.07812 11.153C2.3881 8.91784 1.33636 6.37297 1.00812 3.72461C0.983127 3.48768 1.01599 3.24889 1.10462 3.02343C1.19324 2.79798 1.33569 2.59081 1.52288 2.4151C1.71008 2.2394 1.93792 2.09902 2.19191 2.0029C2.44589 1.90678 2.72046 1.85702 2.99812 1.8568H5.99812C6.48342 1.8527 6.95391 1.99995 7.32188 2.27109C7.68985 2.54222 7.9302 2.91875 7.99812 3.33049C8.12474 4.15307 8.35957 4.96074 8.69812 5.73809C8.83266 6.04476 8.86178 6.37804 8.78203 6.69846C8.70227 7.01887 8.51698 7.31298 8.24812 7.54593L6.97812 8.63406C8.40167 10.7791 10.4746 12.5551 12.9781 13.7748L14.2481 12.6867C14.52 12.4564 14.8633 12.2976 15.2372 12.2293C15.6112 12.1609 16.0002 12.1859 16.3581 12.3012C17.2654 12.5912 18.2081 12.7924 19.1681 12.9009C19.6539 12.9596 20.0975 13.1693 20.4147 13.49C20.7318 13.8106 20.9003 14.22 20.8881 14.6402Z" stroke="white" stroke-width="2" stroke-linecap="round" stroke-linejoin="round"/>
</svg>
